<mxfile host="app.diagrams.net" modified="2024-06-24T02:24:42.996Z" agent="Mozilla/5.0 (Windows NT 10.0; Win64; x64) AppleWebKit/537.36 (KHTML, like Gecko) Chrome/126.0.0.0 Safari/537.36" version="24.6.2" etag="ZrmtiArkvnVuvBP9KEZ_" type="github">
  <diagram name="ページ1" id="Y3EVoigf44cJLL4GCI8e">
    <mxGraphModel>
      <root>
        <mxCell id="0" />
        <mxCell id="1" parent="0" />
      </root>
    </mxGraphModel>
  </diagram>
</mxfile>
